:FULLY-SPECIFIED
:FORCE-ALL-JOINTS-BE-3DOF
:DEGREES
1
root -2.95645 16.8291 -36.2757 3.79203 -0.409345 -2.77144
lfemur -18.1857 -3.85478 -7.37129
ltibia 37.6337 0 0
lfoot -17.8071 6.78532 0
ltoes -26.1578 0 0
rfemur -19.1521 0.15077 14.7318
rtibia 40.3652 0 0
rfoot -23.1652 -2.86285 0
rtoes -21.0274 0 0
lowerback 7.02591 2.55716 -1.97249
upperback -3.14202 3.31583 1.27229
thorax -7.43554 1.75645 1.99661
lowerneck -4.68188 -4.04088 -6.84108
upperneck 4.69893 -5.30737 6.47589
head 2.76948 -2.5844 3.14763
lclavicle 1.91563e-15 -9.24349e-15 0
lhumerus -27.0689 -5.33108 89.6453
lradius 25.7364 0 0
lwrist -30.6252 0 0
lhand -28.8405 29.9909 0
lfingers 7.12502 0 0
lthumb -2.19771 59.9594 0
rclavicle 1.91563e-15 -9.24349e-15 0
rhumerus -32.8355 4.71181 -81.727
rradius 32.9783 0 0
rwrist 3.84135 0 0
rhand -24.1523 -25.0894 0
rfingers 7.12502 0 0
rthumb 2.33029 -55.0564 0
2
root -2.95647 16.8281 -36.2789 3.83496 -0.515041 -2.77044
lfemur -18.1414 -3.65283 -7.40654
ltibia 37.6764 0 0
lfoot -17.8396 6.74302 0
ltoes -25.9129 0 0
rfemur -19.1441 0.0540114 14.7262
rtibia 40.4341 0 0
rfoot -23.1662 -2.73095 0
rtoes -20.6713 0 0
lowerback 7.0168 2.56529 -1.92512
upperback -3.13081 3.33086 1.26317
thorax -7.41553 1.76102 1.95907
lowerneck -4.72931 -3.99134 -6.7546
upperneck 4.68931 -5.23907 6.40124
head 2.76328 -2.55005 3.10787
lclavicle 1.29889e-15 -9.21299e-15 0
lhumerus -27.054 -5.32972 89.6686
lradius 25.7517 0 0
lwrist -30.5982 0 0
lhand -28.8444 29.988 0
lfingers 7.12502 0 0
lthumb -2.19935 59.9583 0
rclavicle 1.70317e-15 -8.97335e-15 0
rhumerus -32.8166 4.6667 -81.6937
rradius 32.9126 0 0
rwrist 3.83502 0 0
rhand -24.1045 -25.1439 0
rfingers 7.12502 0 0
rthumb 2.37643 -55.1064 0
3
root -2.95654 16.8272 -36.2808 3.87536 -0.609706 -2.74215
lfemur -18.0971 -3.45089 -7.44179
ltibia 37.719 0 0
lfoot -17.872 6.70071 0
ltoes -25.668 0 0
rfemur -19.1362 -0.0427472 14.7206
rtibia 40.503 0 0
rfoot -23.1673 -2.59905 0
rtoes -20.3152 0 0
lowerback 6.97964 2.56886 -1.91256
upperback -3.12187 3.33669 1.25357
thorax -7.38337 1.76276 1.94295
lowerneck -4.65596 -3.96919 -6.78933
upperneck 4.65659 -5.21207 6.43618
head 2.73923 -2.5375 3.12874
lclavicle 6.82155e-16 -9.1825e-15 0
lhumerus -27.0392 -5.32836 89.692
lradius 25.767 0 0
lwrist -30.5713 0 0
lhand -28.8483 29.985 0
lfingers 7.12502 0 0
lthumb -2.201 59.9571 0
rclavicle 1.4907e-15 -8.70321e-15 0
rhumerus -32.7976 4.62158 -81.6603
rradius 32.847 0 0
rwrist 3.82869 0 0
rhand -24.0566 -25.1983 0
rfingers 7.12502 0 0
rthumb 2.42257 -55.1564 0
4
root -2.95608 16.8264 -36.2839 3.91591 -0.691332 -2.68194
lfemur -18.0528 -3.24894 -7.47704
ltibia 37.7617 0 0
lfoot -17.9045 6.65841 0
ltoes -25.4231 0 0
rfemur -19.1282 -0.139506 14.715
rtibia 40.5718 0 0
rfoot -23.1683 -2.46715 0
rtoes -19.959 0 0
lowerback 6.97732 2.56488 -1.92358
upperback -3.12468 3.32854 1.22857
thorax -7.38364 1.75861 1.92401
lowerneck -4.67577 -3.93993 -6.77722
upperneck 4.69449 -5.17403 6.43694
head 2.75249 -2.51803 3.12843
lclavicle 6.54182e-17 -9.152e-15 0
lhumerus -27.0243 -5.327 89.7153
lradius 25.7823 0 0
lwrist -30.5443 0 0
lhand -28.8522 29.9821 0
lfingers 7.12502 0 0
lthumb -2.20264 59.956 0
rclavicle 1.27824e-15 -8.43307e-15 0
rhumerus -32.7786 4.57647 -81.627
rradius 32.7813 0 0
rwrist 3.82236 0 0
rhand -24.0088 -25.2528 0
rfingers 7.12502 0 0
rthumb 2.46871 -55.2063 0
